<svg version="1" xmlns="http://www.w3.org/2000/svg" width="300" height="300" viewBox="0 0 225 225"><path d="M106.4 1.1C103.6 1.9 96 8.4 96 10c0 .4-4 .9-8.8 1.2-9.8.4-14.8 2.6-17.9 7.8l-1.6 2.9-13.1.3c-15.3.4-19.2 1.7-23.4 8.1l-2.7 4.1-.3 88.3C28 209.8 28 211.1 30 215c1.1 2.2 3.9 5.2 6.2 6.7l4.2 2.8h144.2l4.2-2.8c2.3-1.5 5.1-4.5 6.2-6.7 2-3.9 2-5.2 1.8-92.3l-.3-88.3-2.7-4.1c-4.2-6.4-8.1-7.7-23.5-8.1l-13.3-.4-1.7-2.9c-3.1-5.2-7.6-7.2-17.1-7.7-8.4-.5-8.4-.5-12.3-4.7-5.3-5.8-11.9-7.6-19.5-5.4zm9.9 17.9c1.5 6 2.6 6.4 15.5 7l11.7.5v17h-62v-17l11.6-.5c12.7-.5 14.4-1.2 15.5-6.3.9-4.5 1.3-4.9 4.2-4.5 2 .2 2.8 1.1 3.5 3.8zM66.8 43c1.4 7.4 4.2 11.7 9.6 14.1 3.7 1.7 7 1.9 36.1 1.9s32.4-.2 36.1-1.9c5.4-2.4 8.2-6.7 9.6-14.1l1-6h10.9c9.7 0 10.9.2 11.9 1.9 1.4 2.7 1.4 166.5 0 169.2-1 1.8-2.9 1.9-69.5 1.9s-68.5-.1-69.5-1.9c-1.4-2.7-1.4-166.5 0-169.2 1-1.7 2.2-1.9 11.9-1.9h10.9l1 6z"/><path d="M55.3 71.7c-5 1-6.9 8.2-3.3 12.1C54.1 86 54.5 86 85 86h30.9l2-2.6c2.4-3.1 2.6-4.3.9-7.8-.7-1.7-2.4-3-4.7-3.6-3.4-.9-54.1-1.2-58.8-.3zM52 96c-1.1 1.1-2 3.3-2 5 0 1.7.9 3.9 2 5 1.9 1.9 3.3 2 21.9 2h20l2-2.6c2.6-3.4 2.6-5.4 0-8.8l-2-2.6h-20c-18.6 0-20 .1-21.9 2zM52 118c-1.1 1.1-2 3.3-2 5 0 1.7.9 3.9 2 5 1.9 1.9 3.3 2 21.9 2h20l2-2.6c2.6-3.4 2.6-5.4 0-8.8l-2-2.6h-20c-18.6 0-20 .1-21.9 2zM122.2 117.8c-6.5 2.3-15.3 8.3-18.5 12.5-19.3 25.4-6 60.4 25.1 65.8 16.8 3 34.9-6.6 42.8-22.6 2.7-5.5 2.9-6.9 2.9-17 0-10.4-.2-11.4-3.2-17.6-4-8.1-12.1-16-20-19.7-7.8-3.5-21.2-4.2-29.1-1.4zm22.7 14.8c5.7 2.4 9.5 5.8 12.4 11.3l2.8 5.1h-21.6l-7.8-7.8-7.9-7.9 2.9-1.1c6.3-2.4 12.7-2.3 19.2.4zm.6 31.2c15.3.4 15.4.5 10.2 7.4-12.1 15.8-34.6 13.9-44-3.7-2.5-4.6-2.9-16-.8-20.9l1.2-3 10 10 9.9 9.9 13.5.3z"/></svg>